<svg width="150" height="150" viewBox="0 0 150 150" fill="none" xmlns="http://www.w3.org/2000/svg">
<rect width="150" height="150" rx="30" fill="url(#paint0_linear_50_29)"/>
<mask id="mask0_50_29" style="mask-type:alpha" maskUnits="userSpaceOnUse" x="53" y="40" width="65" height="76">
<path d="M115.144 74.6783L59.0331 41.5609C56.3667 39.9871 53 41.9093 53 45.0056V111.018C53 114.109 56.3564 116.032 59.023 114.469L115.134 81.5738C117.765 80.0311 117.771 76.2288 115.144 74.6783Z" fill="white"/>
</mask>
<g mask="url(#mask0_50_29)">
<path d="M85 43.4328V40.6011C90.8667 43.0552 96 41.6237 97.8333 40.6011C103.333 38.5245 108.681 39.7359 110.667 40.6011C116.533 43.0552 121.667 41.6237 123.5 40.6011C129 38.5245 134.347 39.7359 136.333 40.6011V43.4328C134.347 42.5676 129 41.3562 123.5 43.4328C121.667 44.4554 116.533 45.8869 110.667 43.4328C108.681 42.5676 103.333 41.3562 97.8333 43.4328C96 44.4554 90.8667 45.8869 85 43.4328Z" fill="white"/>
<path d="M85 52.1601V49.3284C90.8667 51.7825 96 50.351 97.8333 49.3284C103.333 47.2518 108.681 48.4632 110.667 49.3284C116.533 51.7825 121.667 50.351 123.5 49.3284C129 47.2518 134.347 48.4632 136.333 49.3284V52.1601C134.347 51.2949 129 50.0835 123.5 52.1601C121.667 53.1827 116.533 54.6142 110.667 52.1601C108.681 51.2949 103.333 50.0835 97.8333 52.1601C96 53.1827 90.8667 54.6142 85 52.1601Z" fill="white"/>
<path d="M85 60.8874V58.0557C90.8667 60.5098 96 59.0782 97.8333 58.0557C103.333 55.9791 108.681 57.1904 110.667 58.0557C116.533 60.5098 121.667 59.0782 123.5 58.0557C129 55.9791 134.347 57.1904 136.333 58.0557V60.8874C134.347 60.0221 129 58.8108 123.5 60.8874C121.667 61.9099 116.533 63.3415 110.667 60.8874C108.681 60.0221 103.333 58.8108 97.8333 60.8874C96 61.9099 90.8667 63.3415 85 60.8874Z" fill="white"/>
<path d="M85 69.6147V66.783C90.8667 69.2371 96 67.8055 97.8333 66.783C103.333 64.7064 108.681 65.9177 110.667 66.783C116.533 69.2371 121.667 67.8055 123.5 66.783C129 64.7064 134.347 65.9177 136.333 66.783V69.6147C134.347 68.7494 129 67.5381 123.5 69.6147C121.667 70.6372 116.533 72.0688 110.667 69.6147C108.681 68.7494 103.333 67.5381 97.8333 69.6147C96 70.6372 90.8667 72.0688 85 69.6147Z" fill="white"/>
<path d="M85 78.3419V75.5102C90.8667 77.9644 96 76.5328 97.8333 75.5102C103.333 73.4337 108.681 74.645 110.667 75.5102C116.533 77.9644 121.667 76.5328 123.5 75.5102C129 73.4337 134.347 74.645 136.333 75.5102V78.3419C134.347 77.4767 129 76.2654 123.5 78.3419C121.667 79.3645 116.533 80.7961 110.667 78.3419C108.681 77.4767 103.333 76.2654 97.8333 78.3419C96 79.3645 90.8667 80.7961 85 78.3419Z" fill="white"/>
<path d="M85 87.0692V84.2375C90.8667 86.6916 96 85.2601 97.8333 84.2375C103.333 82.1609 108.681 83.3723 110.667 84.2375C116.533 86.6916 121.667 85.2601 123.5 84.2375C129 82.1609 134.347 83.3723 136.333 84.2375V87.0692C134.347 86.204 129 84.9926 123.5 87.0692C121.667 88.0917 116.533 89.5233 110.667 87.0692C108.681 86.204 103.333 84.9926 97.8333 87.0692C96 88.0917 90.8667 89.5233 85 87.0692Z" fill="white"/>
<path d="M85 95.7965V92.9648C90.8667 95.4189 96 93.9873 97.8333 92.9648C103.333 90.8882 108.681 92.0995 110.667 92.9648C116.533 95.4189 121.667 93.9873 123.5 92.9648C129 90.8882 134.347 92.0995 136.333 92.9648V95.7965C134.347 94.9312 129 93.7199 123.5 95.7965C121.667 96.819 116.533 98.2506 110.667 95.7965C108.681 94.9312 103.333 93.7199 97.8333 95.7965C96 96.819 90.8667 98.2506 85 95.7965Z" fill="white"/>
<path d="M85 104.524V101.692C90.8667 104.146 96 102.715 97.8333 101.692C103.333 99.6154 108.681 100.827 110.667 101.692C116.533 104.146 121.667 102.715 123.5 101.692C129 99.6154 134.347 100.827 136.333 101.692V104.524C134.347 103.658 129 102.447 123.5 104.524C121.667 105.546 116.533 106.978 110.667 104.524C108.681 103.658 103.333 102.447 97.8333 104.524C96 105.546 90.8667 106.978 85 104.524Z" fill="white"/>
<path d="M85 113.251V110.419C90.8667 112.873 96 111.442 97.8333 110.419C103.333 108.343 108.681 109.554 110.667 110.419C116.533 112.873 121.667 111.442 123.5 110.419C129 108.343 134.347 109.554 136.333 110.419V113.251C134.347 112.386 129 111.174 123.5 113.251C121.667 114.274 116.533 115.705 110.667 113.251C108.681 112.386 103.333 111.174 97.8333 113.251C96 114.274 90.8667 115.705 85 113.251Z" fill="white"/>
<path d="M34.3335 43.4328V40.6011C40.124 43.0552 45.1906 41.6237 47.0002 40.6011C52.4287 38.5245 57.7065 39.7359 59.6668 40.6011C65.4573 43.0552 70.524 41.6237 72.3335 40.6011C77.7621 38.5245 83.0398 39.7359 85.0002 40.6011V43.4328C83.0398 42.5676 77.7621 41.3562 72.3335 43.4328C70.524 44.4554 65.4573 45.8869 59.6668 43.4328C57.7065 42.5676 52.4287 41.3562 47.0002 43.4328C45.1906 44.4554 40.124 45.8869 34.3335 43.4328Z" fill="white"/>
<path d="M34.3335 52.1601V49.3284C40.124 51.7825 45.1906 50.351 47.0002 49.3284C52.4287 47.2518 57.7065 48.4632 59.6668 49.3284C65.4573 51.7825 70.524 50.351 72.3335 49.3284C77.7621 47.2518 83.0398 48.4632 85.0002 49.3284V52.1601C83.0398 51.2949 77.7621 50.0835 72.3335 52.1601C70.524 53.1827 65.4573 54.6142 59.6668 52.1601C57.7065 51.2949 52.4287 50.0835 47.0002 52.1601C45.1906 53.1827 40.124 54.6142 34.3335 52.1601Z" fill="white"/>
<path d="M34.3335 60.8874V58.0557C40.124 60.5098 45.1906 59.0782 47.0002 58.0557C52.4287 55.9791 57.7065 57.1904 59.6668 58.0557C65.4573 60.5098 70.524 59.0782 72.3335 58.0557C77.7621 55.9791 83.0398 57.1904 85.0002 58.0557V60.8874C83.0398 60.0221 77.7621 58.8108 72.3335 60.8874C70.524 61.9099 65.4573 63.3415 59.6668 60.8874C57.7065 60.0221 52.4287 58.8108 47.0002 60.8874C45.1906 61.9099 40.124 63.3415 34.3335 60.8874Z" fill="white"/>
<path d="M34.3335 69.6147V66.783C40.124 69.2371 45.1906 67.8055 47.0002 66.783C52.4287 64.7064 57.7065 65.9177 59.6668 66.783C65.4573 69.2371 70.524 67.8055 72.3335 66.783C77.7621 64.7064 83.0398 65.9177 85.0002 66.783V69.6147C83.0398 68.7494 77.7621 67.5381 72.3335 69.6147C70.524 70.6372 65.4573 72.0688 59.6668 69.6147C57.7065 68.7494 52.4287 67.5381 47.0002 69.6147C45.1906 70.6372 40.124 72.0688 34.3335 69.6147Z" fill="white"/>
<path d="M34.3335 78.3419V75.5102C40.124 77.9644 45.1906 76.5328 47.0002 75.5102C52.4287 73.4337 57.7065 74.645 59.6668 75.5102C65.4573 77.9644 70.524 76.5328 72.3335 75.5102C77.7621 73.4337 83.0398 74.645 85.0002 75.5102V78.3419C83.0398 77.4767 77.7621 76.2654 72.3335 78.3419C70.524 79.3645 65.4573 80.7961 59.6668 78.3419C57.7065 77.4767 52.4287 76.2654 47.0002 78.3419C45.1906 79.3645 40.124 80.7961 34.3335 78.3419Z" fill="white"/>
<path d="M34.3335 87.0692V84.2375C40.124 86.6916 45.1906 85.2601 47.0002 84.2375C52.4287 82.1609 57.7065 83.3723 59.6668 84.2375C65.4573 86.6916 70.524 85.2601 72.3335 84.2375C77.7621 82.1609 83.0398 83.3723 85.0002 84.2375V87.0692C83.0398 86.204 77.7621 84.9926 72.3335 87.0692C70.524 88.0917 65.4573 89.5233 59.6668 87.0692C57.7065 86.204 52.4287 84.9926 47.0002 87.0692C45.1906 88.0917 40.124 89.5233 34.3335 87.0692Z" fill="white"/>
<path d="M34.3335 95.7965V92.9648C40.124 95.4189 45.1906 93.9873 47.0002 92.9648C52.4287 90.8882 57.7065 92.0995 59.6668 92.9648C65.4573 95.4189 70.524 93.9873 72.3335 92.9648C77.7621 90.8882 83.0398 92.0995 85.0002 92.9648V95.7965C83.0398 94.9312 77.7621 93.7199 72.3335 95.7965C70.524 96.819 65.4573 98.2506 59.6668 95.7965C57.7065 94.9312 52.4287 93.7199 47.0002 95.7965C45.1906 96.819 40.124 98.2506 34.3335 95.7965Z" fill="white"/>
<path d="M34.3335 104.524V101.692C40.124 104.146 45.1906 102.715 47.0002 101.692C52.4287 99.6154 57.7065 100.827 59.6668 101.692C65.4573 104.146 70.524 102.715 72.3335 101.692C77.7621 99.6154 83.0398 100.827 85.0002 101.692V104.524C83.0398 103.658 77.7621 102.447 72.3335 104.524C70.524 105.546 65.4573 106.978 59.6668 104.524C57.7065 103.658 52.4287 102.447 47.0002 104.524C45.1906 105.546 40.124 106.978 34.3335 104.524Z" fill="white"/>
<path d="M34.3335 113.251V110.419C40.124 112.873 45.1906 111.442 47.0002 110.419C52.4287 108.343 57.7065 109.554 59.6668 110.419C65.4573 112.873 70.524 111.442 72.3335 110.419C77.7621 108.343 83.0398 109.554 85.0002 110.419V113.251C83.0398 112.386 77.7621 111.174 72.3335 113.251C70.524 114.274 65.4573 115.705 59.6668 113.251C57.7065 112.386 52.4287 111.174 47.0002 113.251C45.1906 114.274 40.124 115.705 34.3335 113.251Z" fill="white"/>
</g>
<defs>
<linearGradient id="paint0_linear_50_29" x1="13" y1="12" x2="132.5" y2="135.5" gradientUnits="userSpaceOnUse">
<stop stop-color="#40127A" stop-opacity="0.9"/>
<stop offset="1" stop-color="#740092" stop-opacity="0.56"/>
</linearGradient>
</defs>
</svg>
