<svg width="50" height="50" viewBox="0 0 50 50" fill="none" xmlns="http://www.w3.org/2000/svg">
<rect width="50" height="50" rx="10" fill="url(#paint0_linear_46_27)"/>
<mask id="mask0_46_27" style="mask-type:alpha" maskUnits="userSpaceOnUse" x="17" y="14" width="20" height="22">
<path d="M34.3275 21.8722L23.6342 15.5609C20.9677 13.9871 17.6011 15.9093 17.6011 19.0056V31.586C17.6011 34.677 20.9575 36.6 23.6241 35.0367L34.3174 28.7677C36.9489 27.225 36.9545 23.4227 34.3275 21.8722Z" fill="white"/>
</mask>
<g mask="url(#mask0_46_27)">
<path d="M28.228 16.7025V15.7621C30.1763 16.5771 31.8811 16.1017 32.4899 15.7621C34.3165 15.0725 36.0923 15.4748 36.7518 15.7621C38.7001 16.5771 40.4049 16.1017 41.0137 15.7621C42.8403 15.0725 44.6161 15.4748 45.2756 15.7621V16.7025C44.6161 16.4152 42.8403 16.0129 41.0137 16.7025C40.4049 17.0421 38.7001 17.5175 36.7518 16.7025C36.0923 16.4152 34.3165 16.0129 32.4899 16.7025C31.8811 17.0421 30.1763 17.5175 28.228 16.7025Z" fill="white"/>
<path d="M28.228 19.6008V18.6604C30.1763 19.4754 31.8811 19 32.4899 18.6604C34.3165 17.9708 36.0923 18.373 36.7518 18.6604C38.7001 19.4754 40.4049 19 41.0137 18.6604C42.8403 17.9708 44.6161 18.373 45.2756 18.6604V19.6008C44.6161 19.3134 42.8403 18.9112 41.0137 19.6008C40.4049 19.9404 38.7001 20.4158 36.7518 19.6008C36.0923 19.3134 34.3165 18.9112 32.4899 19.6008C31.8811 19.9404 30.1763 20.4158 28.228 19.6008Z" fill="white"/>
<path d="M28.228 22.4991V21.5587C30.1763 22.3737 31.8811 21.8983 32.4899 21.5587C34.3165 20.8691 36.0923 21.2714 36.7518 21.5587C38.7001 22.3737 40.4049 21.8983 41.0137 21.5587C42.8403 20.8691 44.6161 21.2714 45.2756 21.5587V22.4991C44.6161 22.2117 42.8403 21.8095 41.0137 22.4991C40.4049 22.8387 38.7001 23.3141 36.7518 22.4991C36.0923 22.2117 34.3165 21.8095 32.4899 22.4991C31.8811 22.8387 30.1763 23.3141 28.228 22.4991Z" fill="white"/>
<path d="M28.228 25.3974V24.457C30.1763 25.272 31.8811 24.7966 32.4899 24.457C34.3165 23.7674 36.0923 24.1697 36.7518 24.457C38.7001 25.272 40.4049 24.7966 41.0137 24.457C42.8403 23.7674 44.6161 24.1697 45.2756 24.457V25.3974C44.6161 25.1101 42.8403 24.7078 41.0137 25.3974C40.4049 25.737 38.7001 26.2124 36.7518 25.3974C36.0923 25.1101 34.3165 24.7078 32.4899 25.3974C31.8811 25.737 30.1763 26.2124 28.228 25.3974Z" fill="white"/>
<path d="M28.228 28.2957V27.3553C30.1763 28.1703 31.8811 27.6949 32.4899 27.3553C34.3165 26.6657 36.0923 27.068 36.7518 27.3553C38.7001 28.1703 40.4049 27.6949 41.0137 27.3553C42.8403 26.6657 44.6161 27.068 45.2756 27.3553V28.2957C44.6161 28.0084 42.8403 27.6061 41.0137 28.2957C40.4049 28.6353 38.7001 29.1107 36.7518 28.2957C36.0923 28.0084 34.3165 27.6061 32.4899 28.2957C31.8811 28.6353 30.1763 29.1107 28.228 28.2957Z" fill="white"/>
<path d="M28.228 31.194V30.2536C30.1763 31.0686 31.8811 30.5932 32.4899 30.2536C34.3165 29.564 36.0923 29.9662 36.7518 30.2536C38.7001 31.0686 40.4049 30.5932 41.0137 30.2536C42.8403 29.564 44.6161 29.9662 45.2756 30.2536V31.194C44.6161 30.9066 42.8403 30.5044 41.0137 31.194C40.4049 31.5336 38.7001 32.009 36.7518 31.194C36.0923 30.9066 34.3165 30.5044 32.4899 31.194C31.8811 31.5336 30.1763 32.009 28.228 31.194Z" fill="white"/>
<path d="M28.228 34.0923V33.1519C30.1763 33.9669 31.8811 33.4915 32.4899 33.1519C34.3165 32.4623 36.0923 32.8646 36.7518 33.1519C38.7001 33.9669 40.4049 33.4915 41.0137 33.1519C42.8403 32.4623 44.6161 32.8646 45.2756 33.1519V34.0923C44.6161 33.8049 42.8403 33.4027 41.0137 34.0923C40.4049 34.4319 38.7001 34.9073 36.7518 34.0923C36.0923 33.8049 34.3165 33.4027 32.4899 34.0923C31.8811 34.4319 30.1763 34.9073 28.228 34.0923Z" fill="white"/>
<path d="M28.228 36.9906V36.0502C30.1763 36.8652 31.8811 36.3898 32.4899 36.0502C34.3165 35.3606 36.0923 35.7629 36.7518 36.0502C38.7001 36.8652 40.4049 36.3898 41.0137 36.0502C42.8403 35.3606 44.6161 35.7629 45.2756 36.0502V36.9906C44.6161 36.7033 42.8403 36.301 41.0137 36.9906C40.4049 37.3302 38.7001 37.8056 36.7518 36.9906C36.0923 36.7033 34.3165 36.301 32.4899 36.9906C31.8811 37.3302 30.1763 37.8056 28.228 36.9906Z" fill="white"/>
<path d="M11.4019 16.7025V15.7621C13.3249 16.5771 15.0075 16.1017 15.6084 15.7621C17.4112 15.0725 19.164 15.4748 19.815 15.7621C21.738 16.5771 23.4206 16.1017 24.0215 15.7621C25.8243 15.0725 27.5771 15.4748 28.2281 15.7621V16.7025C27.5771 16.4152 25.8243 16.0129 24.0215 16.7025C23.4206 17.0421 21.738 17.5175 19.815 16.7025C19.164 16.4152 17.4112 16.0129 15.6084 16.7025C15.0075 17.0421 13.3249 17.5175 11.4019 16.7025Z" fill="white"/>
<path d="M11.4019 19.6008V18.6604C13.3249 19.4754 15.0075 19 15.6084 18.6604C17.4112 17.9708 19.164 18.373 19.815 18.6604C21.738 19.4754 23.4206 19 24.0215 18.6604C25.8243 17.9708 27.5771 18.373 28.2281 18.6604V19.6008C27.5771 19.3134 25.8243 18.9112 24.0215 19.6008C23.4206 19.9404 21.738 20.4158 19.815 19.6008C19.164 19.3134 17.4112 18.9112 15.6084 19.6008C15.0075 19.9404 13.3249 20.4158 11.4019 19.6008Z" fill="white"/>
<path d="M11.4019 22.4991V21.5587C13.3249 22.3737 15.0075 21.8983 15.6084 21.5587C17.4112 20.8691 19.164 21.2714 19.815 21.5587C21.738 22.3737 23.4206 21.8983 24.0215 21.5587C25.8243 20.8691 27.5771 21.2714 28.2281 21.5587V22.4991C27.5771 22.2117 25.8243 21.8095 24.0215 22.4991C23.4206 22.8387 21.738 23.3141 19.815 22.4991C19.164 22.2117 17.4112 21.8095 15.6084 22.4991C15.0075 22.8387 13.3249 23.3141 11.4019 22.4991Z" fill="white"/>
<path d="M11.4019 25.3974V24.457C13.3249 25.272 15.0075 24.7966 15.6084 24.457C17.4112 23.7674 19.164 24.1697 19.815 24.457C21.738 25.272 23.4206 24.7966 24.0215 24.457C25.8243 23.7674 27.5771 24.1697 28.2281 24.457V25.3974C27.5771 25.1101 25.8243 24.7078 24.0215 25.3974C23.4206 25.737 21.738 26.2124 19.815 25.3974C19.164 25.1101 17.4112 24.7078 15.6084 25.3974C15.0075 25.737 13.3249 26.2124 11.4019 25.3974Z" fill="white"/>
<path d="M11.4019 28.2957V27.3553C13.3249 28.1703 15.0075 27.6949 15.6084 27.3553C17.4112 26.6657 19.164 27.068 19.815 27.3553C21.738 28.1703 23.4206 27.6949 24.0215 27.3553C25.8243 26.6657 27.5771 27.068 28.2281 27.3553V28.2957C27.5771 28.0084 25.8243 27.6061 24.0215 28.2957C23.4206 28.6353 21.738 29.1107 19.815 28.2957C19.164 28.0084 17.4112 27.6061 15.6084 28.2957C15.0075 28.6353 13.3249 29.1107 11.4019 28.2957Z" fill="white"/>
<path d="M11.4019 31.194V30.2536C13.3249 31.0686 15.0075 30.5932 15.6084 30.2536C17.4112 29.564 19.164 29.9662 19.815 30.2536C21.738 31.0686 23.4206 30.5932 24.0215 30.2536C25.8243 29.564 27.5771 29.9662 28.2281 30.2536V31.194C27.5771 30.9066 25.8243 30.5044 24.0215 31.194C23.4206 31.5336 21.738 32.009 19.815 31.194C19.164 30.9066 17.4112 30.5044 15.6084 31.194C15.0075 31.5336 13.3249 32.009 11.4019 31.194Z" fill="white"/>
<path d="M11.4019 34.0923V33.1519C13.3249 33.9669 15.0075 33.4915 15.6084 33.1519C17.4112 32.4623 19.164 32.8646 19.815 33.1519C21.738 33.9669 23.4206 33.4915 24.0215 33.1519C25.8243 32.4623 27.5771 32.8646 28.2281 33.1519V34.0923C27.5771 33.8049 25.8243 33.4027 24.0215 34.0923C23.4206 34.4319 21.738 34.9073 19.815 34.0923C19.164 33.8049 17.4112 33.4027 15.6084 34.0923C15.0075 34.4319 13.3249 34.9073 11.4019 34.0923Z" fill="white"/>
<path d="M11.4019 36.9906V36.0502C13.3249 36.8652 15.0075 36.3898 15.6084 36.0502C17.4112 35.3606 19.164 35.7629 19.815 36.0502C21.738 36.8652 23.4206 36.3898 24.0215 36.0502C25.8243 35.3606 27.5771 35.7629 28.2281 36.0502V36.9906C27.5771 36.7033 25.8243 36.301 24.0215 36.9906C23.4206 37.3302 21.738 37.8056 19.815 36.9906C19.164 36.7033 17.4112 36.301 15.6084 36.9906C15.0075 37.3302 13.3249 37.8056 11.4019 36.9906Z" fill="white"/>
</g>
<defs>
<linearGradient id="paint0_linear_46_27" x1="4.33333" y1="4" x2="44.1667" y2="45.1667" gradientUnits="userSpaceOnUse">
<stop stop-color="#40127A" stop-opacity="0.9"/>
<stop offset="1" stop-color="#AC6BBD"/>
</linearGradient>
</defs>
</svg>
