<svg width="237" height="65" viewBox="0 0 237 65" fill="none" xmlns="http://www.w3.org/2000/svg">
<rect y="7" width="50" height="50" rx="10" fill="url(#paint0_linear_43_26)"/>
<mask id="mask0_43_26" style="mask-type:alpha" maskUnits="userSpaceOnUse" x="17" y="21" width="20" height="22">
<path d="M34.3275 28.8722L23.6342 22.5609C20.9677 20.9871 17.6011 22.9093 17.6011 26.0056V38.586C17.6011 41.677 20.9575 43.6 23.6241 42.0367L34.3174 35.7677C36.9489 34.225 36.9545 30.4227 34.3275 28.8722Z" fill="white"/>
</mask>
<g mask="url(#mask0_43_26)">
<path d="M28.228 23.7025V22.7621C30.1763 23.5771 31.8811 23.1017 32.4899 22.7621C34.3165 22.0725 36.0923 22.4748 36.7518 22.7621C38.7001 23.5771 40.4049 23.1017 41.0137 22.7621C42.8403 22.0725 44.6161 22.4748 45.2756 22.7621V23.7025C44.6161 23.4152 42.8403 23.0129 41.0137 23.7025C40.4049 24.0421 38.7001 24.5175 36.7518 23.7025C36.0923 23.4152 34.3165 23.0129 32.4899 23.7025C31.8811 24.0421 30.1763 24.5175 28.228 23.7025Z" fill="white"/>
<path d="M28.228 26.6008V25.6604C30.1763 26.4754 31.8811 26 32.4899 25.6604C34.3165 24.9708 36.0923 25.373 36.7518 25.6604C38.7001 26.4754 40.4049 26 41.0137 25.6604C42.8403 24.9708 44.6161 25.373 45.2756 25.6604V26.6008C44.6161 26.3134 42.8403 25.9112 41.0137 26.6008C40.4049 26.9404 38.7001 27.4158 36.7518 26.6008C36.0923 26.3134 34.3165 25.9112 32.4899 26.6008C31.8811 26.9404 30.1763 27.4158 28.228 26.6008Z" fill="white"/>
<path d="M28.228 29.4991V28.5587C30.1763 29.3737 31.8811 28.8983 32.4899 28.5587C34.3165 27.8691 36.0923 28.2714 36.7518 28.5587C38.7001 29.3737 40.4049 28.8983 41.0137 28.5587C42.8403 27.8691 44.6161 28.2714 45.2756 28.5587V29.4991C44.6161 29.2117 42.8403 28.8095 41.0137 29.4991C40.4049 29.8387 38.7001 30.3141 36.7518 29.4991C36.0923 29.2117 34.3165 28.8095 32.4899 29.4991C31.8811 29.8387 30.1763 30.3141 28.228 29.4991Z" fill="white"/>
<path d="M28.228 32.3974V31.457C30.1763 32.272 31.8811 31.7966 32.4899 31.457C34.3165 30.7674 36.0923 31.1697 36.7518 31.457C38.7001 32.272 40.4049 31.7966 41.0137 31.457C42.8403 30.7674 44.6161 31.1697 45.2756 31.457V32.3974C44.6161 32.1101 42.8403 31.7078 41.0137 32.3974C40.4049 32.737 38.7001 33.2124 36.7518 32.3974C36.0923 32.1101 34.3165 31.7078 32.4899 32.3974C31.8811 32.737 30.1763 33.2124 28.228 32.3974Z" fill="white"/>
<path d="M28.228 35.2957V34.3553C30.1763 35.1703 31.8811 34.6949 32.4899 34.3553C34.3165 33.6657 36.0923 34.068 36.7518 34.3553C38.7001 35.1703 40.4049 34.6949 41.0137 34.3553C42.8403 33.6657 44.6161 34.068 45.2756 34.3553V35.2957C44.6161 35.0084 42.8403 34.6061 41.0137 35.2957C40.4049 35.6353 38.7001 36.1107 36.7518 35.2957C36.0923 35.0084 34.3165 34.6061 32.4899 35.2957C31.8811 35.6353 30.1763 36.1107 28.228 35.2957Z" fill="white"/>
<path d="M28.228 38.194V37.2536C30.1763 38.0686 31.8811 37.5932 32.4899 37.2536C34.3165 36.564 36.0923 36.9662 36.7518 37.2536C38.7001 38.0686 40.4049 37.5932 41.0137 37.2536C42.8403 36.564 44.6161 36.9662 45.2756 37.2536V38.194C44.6161 37.9066 42.8403 37.5044 41.0137 38.194C40.4049 38.5336 38.7001 39.009 36.7518 38.194C36.0923 37.9066 34.3165 37.5044 32.4899 38.194C31.8811 38.5336 30.1763 39.009 28.228 38.194Z" fill="white"/>
<path d="M28.228 41.0923V40.1519C30.1763 40.9669 31.8811 40.4915 32.4899 40.1519C34.3165 39.4623 36.0923 39.8646 36.7518 40.1519C38.7001 40.9669 40.4049 40.4915 41.0137 40.1519C42.8403 39.4623 44.6161 39.8646 45.2756 40.1519V41.0923C44.6161 40.8049 42.8403 40.4027 41.0137 41.0923C40.4049 41.4319 38.7001 41.9073 36.7518 41.0923C36.0923 40.8049 34.3165 40.4027 32.4899 41.0923C31.8811 41.4319 30.1763 41.9073 28.228 41.0923Z" fill="white"/>
<path d="M28.228 43.9906V43.0502C30.1763 43.8652 31.8811 43.3898 32.4899 43.0502C34.3165 42.3606 36.0923 42.7629 36.7518 43.0502C38.7001 43.8652 40.4049 43.3898 41.0137 43.0502C42.8403 42.3606 44.6161 42.7629 45.2756 43.0502V43.9906C44.6161 43.7033 42.8403 43.301 41.0137 43.9906C40.4049 44.3302 38.7001 44.8056 36.7518 43.9906C36.0923 43.7033 34.3165 43.301 32.4899 43.9906C31.8811 44.3302 30.1763 44.8056 28.228 43.9906Z" fill="white"/>
<path d="M11.4019 23.7025V22.7621C13.3249 23.5771 15.0075 23.1017 15.6084 22.7621C17.4112 22.0725 19.164 22.4748 19.815 22.7621C21.738 23.5771 23.4206 23.1017 24.0215 22.7621C25.8243 22.0725 27.5771 22.4748 28.2281 22.7621V23.7025C27.5771 23.4152 25.8243 23.0129 24.0215 23.7025C23.4206 24.0421 21.738 24.5175 19.815 23.7025C19.164 23.4152 17.4112 23.0129 15.6084 23.7025C15.0075 24.0421 13.3249 24.5175 11.4019 23.7025Z" fill="white"/>
<path d="M11.4019 26.6008V25.6604C13.3249 26.4754 15.0075 26 15.6084 25.6604C17.4112 24.9708 19.164 25.373 19.815 25.6604C21.738 26.4754 23.4206 26 24.0215 25.6604C25.8243 24.9708 27.5771 25.373 28.2281 25.6604V26.6008C27.5771 26.3134 25.8243 25.9112 24.0215 26.6008C23.4206 26.9404 21.738 27.4158 19.815 26.6008C19.164 26.3134 17.4112 25.9112 15.6084 26.6008C15.0075 26.9404 13.3249 27.4158 11.4019 26.6008Z" fill="white"/>
<path d="M11.4019 29.4991V28.5587C13.3249 29.3737 15.0075 28.8983 15.6084 28.5587C17.4112 27.8691 19.164 28.2714 19.815 28.5587C21.738 29.3737 23.4206 28.8983 24.0215 28.5587C25.8243 27.8691 27.5771 28.2714 28.2281 28.5587V29.4991C27.5771 29.2117 25.8243 28.8095 24.0215 29.4991C23.4206 29.8387 21.738 30.3141 19.815 29.4991C19.164 29.2117 17.4112 28.8095 15.6084 29.4991C15.0075 29.8387 13.3249 30.3141 11.4019 29.4991Z" fill="white"/>
<path d="M11.4019 32.3974V31.457C13.3249 32.272 15.0075 31.7966 15.6084 31.457C17.4112 30.7674 19.164 31.1697 19.815 31.457C21.738 32.272 23.4206 31.7966 24.0215 31.457C25.8243 30.7674 27.5771 31.1697 28.2281 31.457V32.3974C27.5771 32.1101 25.8243 31.7078 24.0215 32.3974C23.4206 32.737 21.738 33.2124 19.815 32.3974C19.164 32.1101 17.4112 31.7078 15.6084 32.3974C15.0075 32.737 13.3249 33.2124 11.4019 32.3974Z" fill="white"/>
<path d="M11.4019 35.2957V34.3553C13.3249 35.1703 15.0075 34.6949 15.6084 34.3553C17.4112 33.6657 19.164 34.068 19.815 34.3553C21.738 35.1703 23.4206 34.6949 24.0215 34.3553C25.8243 33.6657 27.5771 34.068 28.2281 34.3553V35.2957C27.5771 35.0084 25.8243 34.6061 24.0215 35.2957C23.4206 35.6353 21.738 36.1107 19.815 35.2957C19.164 35.0084 17.4112 34.6061 15.6084 35.2957C15.0075 35.6353 13.3249 36.1107 11.4019 35.2957Z" fill="white"/>
<path d="M11.4019 38.194V37.2536C13.3249 38.0686 15.0075 37.5932 15.6084 37.2536C17.4112 36.564 19.164 36.9662 19.815 37.2536C21.738 38.0686 23.4206 37.5932 24.0215 37.2536C25.8243 36.564 27.5771 36.9662 28.2281 37.2536V38.194C27.5771 37.9066 25.8243 37.5044 24.0215 38.194C23.4206 38.5336 21.738 39.009 19.815 38.194C19.164 37.9066 17.4112 37.5044 15.6084 38.194C15.0075 38.5336 13.3249 39.009 11.4019 38.194Z" fill="white"/>
<path d="M11.4019 41.0923V40.1519C13.3249 40.9669 15.0075 40.4915 15.6084 40.1519C17.4112 39.4623 19.164 39.8646 19.815 40.1519C21.738 40.9669 23.4206 40.4915 24.0215 40.1519C25.8243 39.4623 27.5771 39.8646 28.2281 40.1519V41.0923C27.5771 40.8049 25.8243 40.4027 24.0215 41.0923C23.4206 41.4319 21.738 41.9073 19.815 41.0923C19.164 40.8049 17.4112 40.4027 15.6084 41.0923C15.0075 41.4319 13.3249 41.9073 11.4019 41.0923Z" fill="white"/>
<path d="M11.4019 43.9906V43.0502C13.3249 43.8652 15.0075 43.3898 15.6084 43.0502C17.4112 42.3606 19.164 42.7629 19.815 43.0502C21.738 43.8652 23.4206 43.3898 24.0215 43.0502C25.8243 42.3606 27.5771 42.7629 28.2281 43.0502V43.9906C27.5771 43.7033 25.8243 43.301 24.0215 43.9906C23.4206 44.3302 21.738 44.8056 19.815 43.9906C19.164 43.7033 17.4112 43.301 15.6084 43.9906C15.0075 44.3302 13.3249 44.8056 11.4019 43.9906Z" fill="white"/>
</g>
<path d="M64.152 48.432C62.872 48.432 61.88 48.08 61.176 47.376C60.504 46.672 60.168 45.68 60.168 44.4V17.76C60.168 16.448 60.536 15.456 61.272 14.784C62.008 14.08 63.048 13.728 64.392 13.728C65.512 13.728 66.392 13.952 67.032 14.4C67.704 14.816 68.312 15.52 68.856 16.512L79.176 35.04H77.496L87.768 16.512C88.344 15.52 88.952 14.816 89.592 14.4C90.264 13.952 91.16 13.728 92.28 13.728C93.56 13.728 94.536 14.08 95.208 14.784C95.912 15.456 96.264 16.448 96.264 17.76V44.4C96.264 45.68 95.928 46.672 95.256 47.376C94.584 48.08 93.592 48.432 92.28 48.432C91 48.432 90.008 48.08 89.304 47.376C88.632 46.672 88.296 45.68 88.296 44.4V27.888H89.304L81.576 41.328C81.128 42.032 80.648 42.56 80.136 42.912C79.656 43.264 79 43.44 78.168 43.44C77.368 43.44 76.712 43.264 76.2 42.912C75.688 42.56 75.224 42.032 74.808 41.328L67.032 27.84H68.136V44.4C68.136 45.68 67.8 46.672 67.128 47.376C66.456 48.08 65.464 48.432 64.152 48.432ZM106.334 48.432C105.758 48.432 105.23 48.336 104.75 48.144C104.27 47.952 103.854 47.68 103.502 47.328C103.182 46.944 102.926 46.48 102.734 45.936C102.574 45.392 102.494 44.768 102.494 44.064V17.856C102.494 16.512 102.846 15.488 103.55 14.784C104.254 14.08 105.278 13.728 106.622 13.728C107.966 13.728 108.974 14.08 109.646 14.784C110.35 15.488 110.702 16.512 110.702 17.856V35.232H109.358L124.574 16.224C125.278 15.328 125.934 14.688 126.542 14.304C127.182 13.92 128.046 13.728 129.134 13.728C129.87 13.728 130.494 13.888 131.006 14.208C131.55 14.528 131.966 14.992 132.254 15.6C132.542 16.176 132.686 16.864 132.686 17.664V44.256C132.686 45.632 132.334 46.672 131.63 47.376C130.958 48.08 129.95 48.432 128.606 48.432C127.262 48.432 126.238 48.08 125.534 47.376C124.862 46.672 124.526 45.632 124.526 44.256V26.88H125.822L110.654 45.936C109.95 46.8 109.294 47.44 108.686 47.856C108.11 48.24 107.326 48.432 106.334 48.432Z" fill="#413444"/>
<path d="M143.477 48C141.973 48 140.821 47.616 140.021 46.848C139.253 46.048 138.869 44.912 138.869 43.44V18.72C138.869 17.248 139.253 16.128 140.021 15.36C140.821 14.56 141.973 14.16 143.477 14.16H161.093C162.213 14.16 163.061 14.448 163.637 15.024C164.245 15.6 164.549 16.432 164.549 17.52C164.549 18.64 164.245 19.504 163.637 20.112C163.061 20.688 162.213 20.976 161.093 20.976H147.317V27.312H155.669C159.349 27.312 162.245 28.208 164.357 30C166.501 31.76 167.573 34.304 167.573 37.632C167.573 40.96 166.501 43.52 164.357 45.312C162.245 47.104 159.349 48 155.669 48H143.477ZM147.317 41.328H154.469C156.101 41.328 157.285 41.024 158.021 40.416C158.789 39.808 159.173 38.88 159.173 37.632C159.173 36.384 158.789 35.472 158.021 34.896C157.285 34.288 156.101 33.984 154.469 33.984H147.317V41.328ZM175.756 48.432C175.18 48.432 174.652 48.336 174.172 48.144C173.692 47.952 173.276 47.68 172.924 47.328C172.604 46.944 172.348 46.48 172.156 45.936C171.996 45.392 171.916 44.768 171.916 44.064V17.856C171.916 16.512 172.268 15.488 172.972 14.784C173.676 14.08 174.7 13.728 176.044 13.728C177.388 13.728 178.396 14.08 179.068 14.784C179.772 15.488 180.124 16.512 180.124 17.856V35.232H178.78L193.996 16.224C194.7 15.328 195.356 14.688 195.964 14.304C196.604 13.92 197.468 13.728 198.556 13.728C199.292 13.728 199.916 13.888 200.428 14.208C200.972 14.528 201.388 14.992 201.676 15.6C201.964 16.176 202.108 16.864 202.108 17.664V44.256C202.108 45.632 201.756 46.672 201.052 47.376C200.38 48.08 199.372 48.432 198.028 48.432C196.684 48.432 195.66 48.08 194.956 47.376C194.284 46.672 193.948 45.632 193.948 44.256V26.88H195.244L180.076 45.936C179.372 46.8 178.716 47.44 178.108 47.856C177.532 48.24 176.748 48.432 175.756 48.432ZM220.675 48.432C219.267 48.432 218.179 48.048 217.411 47.28C216.643 46.48 216.259 45.376 216.259 43.968V21.36H208.723C207.539 21.36 206.627 21.056 205.987 20.448C205.379 19.808 205.075 18.912 205.075 17.76C205.075 16.576 205.379 15.68 205.987 15.072C206.627 14.464 207.539 14.16 208.723 14.16H232.627C233.811 14.16 234.707 14.464 235.315 15.072C235.955 15.68 236.275 16.576 236.275 17.76C236.275 18.912 235.955 19.808 235.315 20.448C234.707 21.056 233.811 21.36 232.627 21.36H225.091V43.968C225.091 45.376 224.723 46.48 223.987 47.28C223.251 48.048 222.147 48.432 220.675 48.432Z" fill="url(#paint1_linear_43_26)"/>
<defs>
<linearGradient id="paint0_linear_43_26" x1="4.33333" y1="11" x2="44.1667" y2="52.1667" gradientUnits="userSpaceOnUse">
<stop stop-color="#40127A" stop-opacity="0.9"/>
<stop offset="1" stop-color="#AC6BBD"/>
</linearGradient>
<linearGradient id="paint1_linear_43_26" x1="140.5" y1="17.5" x2="233" y2="46.5" gradientUnits="userSpaceOnUse">
<stop stop-color="#522987"/>
<stop offset="1" stop-color="#AC6BBD"/>
</linearGradient>
</defs>
</svg>
